<?xml version="1.0" encoding="UTF-8"?>
<!DOCTYPE svg PUBLIC "-//W3C//DTD SVG 1.1//EN" "http://www.w3.org/Graphics/SVG/1.1/DTD/svg11.dtd">
<svg xmlns="http://www.w3.org/2000/svg" version="1.1" width="215px" height="222px" style="shape-rendering:geometricPrecision; text-rendering:geometricPrecision; image-rendering:optimizeQuality; fill-rule:evenodd; clip-rule:evenodd" xmlns:xlink="http://www.w3.org/1999/xlink">
<g><path style="opacity:0.22" fill="#d6d4d4" d="M 172.5,70.5 C 171.833,70.5 171.167,70.5 170.5,70.5C 166.797,70.2731 164.13,68.6064 162.5,65.5C 158.098,56.9293 151.765,50.0959 143.5,45C 113.532,29.1271 87.0319,33.6271 64,58.5C 62.2389,61.4111 60.7389,64.4111 59.5,67.5C 58.8333,67.5 58.5,67.8333 58.5,68.5C 56.8333,68.5 55.1667,68.5 53.5,68.5C 54.8775,67.7656 56.3775,67.0989 58,66.5C 69.793,45.1802 87.9596,34.5136 112.5,34.5C 136.223,35.2387 153.89,45.9053 165.5,66.5C 168.349,67.0997 170.682,68.4331 172.5,70.5 Z"/></g>
<g><path style="opacity:0.976" fill="#3b393a" d="M 162.5,65.5 C 162.869,67.9935 162.203,68.6602 160.5,67.5C 160.672,66.5084 160.338,65.8417 159.5,65.5C 153.018,53.6709 143.351,46.0042 130.5,42.5C 128.485,41.0762 126.152,40.4095 123.5,40.5C 113.251,37.7277 102.918,37.8944 92.5,41C 91.4293,41.8518 90.4293,42.6851 89.5,43.5C 84.9971,44.1532 80.9971,45.9866 77.5,49C 74.9634,51.872 72.1301,54.372 69,56.5C 66.6422,59.2223 64.8089,62.2223 63.5,65.5C 62.8333,65.5 62.5,65.8333 62.5,66.5C 61.8485,67.0906 61.1818,67.7573 60.5,68.5C 59.8933,68.3764 59.56,68.0431 59.5,67.5C 60.7389,64.4111 62.2389,61.4111 64,58.5C 87.0319,33.6271 113.532,29.1271 143.5,45C 151.765,50.0959 158.098,56.9293 162.5,65.5 Z"/></g>
<g><path style="opacity:0.259" fill="#cbcccc" d="M 89.5,43.5 C 79.3565,48.7443 71.0232,56.0776 64.5,65.5C 64.1667,65.5 63.8333,65.5 63.5,65.5C 64.8089,62.2223 66.6422,59.2223 69,56.5C 72.1301,54.372 74.9634,51.872 77.5,49C 80.9971,45.9866 84.9971,44.1532 89.5,43.5 Z"/></g>
<g><path style="opacity:0.063" fill="#e2e2e2" d="M 123.5,40.5 C 126.152,40.4095 128.485,41.0762 130.5,42.5C 127.848,42.5905 125.515,41.9238 123.5,40.5 Z"/></g>
<g><path style="opacity:0.016" fill="#d8d8d8" d="M 123.5,40.5 C 111.909,38.648 100.575,39.648 89.5,43.5C 90.4293,42.6851 91.4293,41.8518 92.5,41C 102.918,37.8944 113.251,37.7277 123.5,40.5 Z"/></g>
<g><path style="opacity:0.133" fill="#cdcbcc" d="M 130.5,42.5 C 143.351,46.0042 153.018,53.6709 159.5,65.5C 159.715,67.1788 159.048,68.1788 157.5,68.5C 158.501,67.2113 158.334,65.8779 157,64.5C 150.34,54.4373 141.507,47.1039 130.5,42.5 Z"/></g>
<g><path style="opacity:1" fill="#be7c66" d="M 62.5,66.5 C 63.6252,67.9999 64.9586,69.3332 66.5,70.5C 64.5168,70.1568 63.1834,70.8235 62.5,72.5C 60.283,71.6314 57.9496,71.298 55.5,71.5C 55.1667,71.5 54.8333,71.5 54.5,71.5C 53.5,71.5 52.5,71.5 51.5,71.5C 53.5884,69.9805 55.9217,68.9805 58.5,68.5C 58.5,67.8333 58.8333,67.5 59.5,67.5C 59.56,68.0431 59.8933,68.3764 60.5,68.5C 61.1818,67.7573 61.8485,67.0906 62.5,66.5 Z"/></g>
<g><path style="opacity:0.835" fill="#9a7161" d="M 162.5,65.5 C 164.13,68.6064 166.797,70.2731 170.5,70.5C 170.5,70.8333 170.5,71.1667 170.5,71.5C 169.833,71.5 169.5,71.8333 169.5,72.5C 167.703,71.2702 165.703,70.6036 163.5,70.5C 162.791,69.596 161.791,69.2627 160.5,69.5C 160.5,68.8333 160.5,68.1667 160.5,67.5C 162.203,68.6602 162.869,67.9935 162.5,65.5 Z"/></g>
<g><path style="opacity:1" fill="#cd7347" d="M 66.5,70.5 C 71.3237,73.008 74.3237,77.008 75.5,82.5C 73.1667,79.8333 70.8333,77.1667 68.5,74.5C 68.5,74.1667 68.5,73.8333 68.5,73.5C 67.0813,72.5489 65.4147,72.2155 63.5,72.5C 63.7678,74.099 63.4345,75.4324 62.5,76.5C 62.5,75.1667 62.5,73.8333 62.5,72.5C 63.1834,70.8235 64.5168,70.1568 66.5,70.5 Z"/></g>
<g><path style="opacity:0.251" fill="#f9dec4" d="M 163.5,70.5 C 165.703,70.6036 167.703,71.2702 169.5,72.5C 169.5,73.8333 169.5,75.1667 169.5,76.5C 167.638,78.4748 165.638,78.8081 163.5,77.5C 162.833,77.5 162.167,77.5 161.5,77.5C 161.171,74.7718 161.837,72.4385 163.5,70.5 Z M 163.5,77.5 C 161.707,74.0134 162.707,72.5134 166.5,73C 168.161,76.1499 167.161,77.6499 163.5,77.5 Z"/></g>
<g><path style="opacity:1" fill="#d36f3a" d="M 160.5,69.5 C 161.791,69.2627 162.791,69.596 163.5,70.5C 161.837,72.4385 161.171,74.7718 161.5,77.5C 159.744,76.4479 159.077,74.7812 159.5,72.5C 155.937,72.6832 152.937,74.0165 150.5,76.5C 152.362,72.2228 155.695,69.8894 160.5,69.5 Z"/></g>
<g><path style="opacity:0.937" fill="#db875f" d="M 51.5,71.5 C 50.5,73.1667 49.1667,74.5 47.5,75.5C 47.8333,73.1667 49.1667,71.8333 51.5,71.5 Z"/></g>
<g><path style="opacity:0.251" fill="#fad8c0" d="M 63.5,65.5 C 63.8333,65.5 64.1667,65.5 64.5,65.5C 68.4208,68.5914 71.9208,72.2581 75,76.5C 77.7886,82.4067 80.2886,88.4067 82.5,94.5C 81.8333,94.1667 81.1667,93.8333 80.5,93.5C 79.5924,90.0125 77.9257,87.0125 75.5,84.5C 75.5,83.8333 75.5,83.1667 75.5,82.5C 74.3237,77.008 71.3237,73.008 66.5,70.5C 64.9586,69.3332 63.6252,67.9999 62.5,66.5C 62.5,65.8333 62.8333,65.5 63.5,65.5 Z"/></g>
<g><path style="opacity:0.078" fill="#fddfc0" d="M 55.5,71.5 C 57.9496,71.298 60.283,71.6314 62.5,72.5C 62.5,73.8333 62.5,75.1667 62.5,76.5C 56.0427,80.2953 53.7094,78.6287 55.5,71.5 Z M 57.5,72.5 C 61.1729,73.7076 61.3396,75.3743 58,77.5C 56.2116,75.9769 56.0449,74.3102 57.5,72.5 Z"/></g>
<g><path style="opacity:1" fill="#bf5f3d" d="M 170.5,71.5 C 172.587,72.5846 173.92,74.2512 174.5,76.5C 172.901,75.438 171.234,75.438 169.5,76.5C 169.5,75.1667 169.5,73.8333 169.5,72.5C 169.5,71.8333 169.833,71.5 170.5,71.5 Z"/></g>
<g><path style="opacity:1" fill="#d65e22" d="M 51.5,71.5 C 52.5,71.5 53.5,71.5 54.5,71.5C 53.6314,73.717 53.298,76.0504 53.5,78.5C 51.6208,77.6586 49.6208,77.3253 47.5,77.5C 47.5,76.8333 47.5,76.1667 47.5,75.5C 49.1667,74.5 50.5,73.1667 51.5,71.5 Z"/></g>
<g><path style="opacity:1" fill="#d36128" d="M 174.5,76.5 C 176.267,78.7916 177.267,81.4582 177.5,84.5C 177.5,85.5 177.5,86.5 177.5,87.5C 176.754,84.8606 175.754,82.1939 174.5,79.5C 173.833,79.1667 173.167,78.8333 172.5,78.5C 170.438,79.7295 168.271,80.7295 166,81.5C 164.301,81.6134 163.134,80.9468 162.5,79.5C 164.527,79.6621 166.527,79.4955 168.5,79C 169.252,78.3292 169.586,77.4959 169.5,76.5C 171.234,75.438 172.901,75.438 174.5,76.5 Z"/></g>
<g><path style="opacity:0.933" fill="#ea9663" d="M 54.5,71.5 C 54.8333,71.5 55.1667,71.5 55.5,71.5C 53.7094,78.6287 56.0427,80.2953 62.5,76.5C 62.5858,77.4959 62.2524,78.3292 61.5,79C 58.7395,79.7218 56.0728,79.5552 53.5,78.5C 53.298,76.0504 53.6314,73.717 54.5,71.5 Z"/></g>
<g><path style="opacity:0.588" fill="#f3aa81" d="M 169.5,76.5 C 169.586,77.4959 169.252,78.3292 168.5,79C 166.527,79.4955 164.527,79.6621 162.5,79.5C 162.167,78.8333 161.833,78.1667 161.5,77.5C 162.167,77.5 162.833,77.5 163.5,77.5C 165.638,78.8081 167.638,78.4748 169.5,76.5 Z"/></g>
<g><path style="opacity:0.471" fill="#f5cdb4" d="M 170.5,71.5 C 170.5,71.1667 170.5,70.8333 170.5,70.5C 171.167,70.5 171.833,70.5 172.5,70.5C 175.176,72.0263 177.009,74.3596 178,77.5C 180.351,84.3838 182.185,91.3838 183.5,98.5C 182.833,97.8333 182.167,97.1667 181.5,96.5C 181.103,91.974 179.77,87.974 177.5,84.5C 177.267,81.4582 176.267,78.7916 174.5,76.5C 173.92,74.2512 172.587,72.5846 170.5,71.5 Z"/></g>
<g><path style="opacity:1" fill="#de5f20" d="M 68.5,73.5 C 67.1667,73.5 65.8333,73.5 64.5,73.5C 64.5,75.8333 64.5,78.1667 64.5,80.5C 60.7839,81.6567 57.1172,81.6567 53.5,80.5C 53.5,79.8333 53.5,79.1667 53.5,78.5C 56.0728,79.5552 58.7395,79.7218 61.5,79C 62.2524,78.3292 62.5858,77.4959 62.5,76.5C 63.4345,75.4324 63.7678,74.099 63.5,72.5C 65.4147,72.2155 67.0813,72.5489 68.5,73.5 Z"/></g>
<g><path style="opacity:1" fill="#fb5a03" d="M 68.5,73.5 C 68.5,73.8333 68.5,74.1667 68.5,74.5C 69.8507,78.3707 71.684,82.0373 74,85.5C 74.4908,91.6168 75.9908,97.4501 78.5,103C 77.7665,104.766 77.4332,106.599 77.5,108.5C 74.8822,108.221 72.3822,107.554 70,106.5C 69.6258,107.416 69.1258,108.25 68.5,109C 70.0175,110.685 71.6841,112.185 73.5,113.5C 72.6721,114.415 71.6721,115.081 70.5,115.5C 68.5,114.167 66.5,112.833 64.5,111.5C 63.6433,112.736 62.9766,114.069 62.5,115.5C 63.7161,116.096 65.0494,116.263 66.5,116C 67.3366,117.011 67.67,118.178 67.5,119.5C 66.5,119.5 65.5,119.5 64.5,119.5C 64.5,120.833 64.5,122.167 64.5,123.5C 62.8333,123.5 61.1667,123.5 59.5,123.5C 59.8146,121.774 59.9813,120.107 60,118.5C 56.6282,115.436 53.1282,111.769 49.5,107.5C 51.1667,105.167 53.1667,103.167 55.5,101.5C 52.8074,99.9595 50.1407,98.6261 47.5,97.5C 46.2706,92.2581 47.9372,88.4248 52.5,86C 51.4214,85.044 50.2547,84.2106 49,83.5C 48.5134,79.7071 50.0134,78.7071 53.5,80.5C 57.1172,81.6567 60.7839,81.6567 64.5,80.5C 64.5,78.1667 64.5,75.8333 64.5,73.5C 65.8333,73.5 67.1667,73.5 68.5,73.5 Z"/></g>
<g><path style="opacity:1" fill="#ef5e0e" d="M 161.5,77.5 C 161.833,78.1667 162.167,78.8333 162.5,79.5C 163.134,80.9468 164.301,81.6134 166,81.5C 168.271,80.7295 170.438,79.7295 172.5,78.5C 173.167,78.8333 173.833,79.1667 174.5,79.5C 175.754,82.1939 176.754,84.8606 177.5,87.5C 177.971,89.5786 178.637,91.5786 179.5,93.5C 179.323,97.2343 179.656,100.901 180.5,104.5C 179.172,101.202 177.672,97.8691 176,94.5C 175.047,91.5682 174.547,88.5682 174.5,85.5C 173.041,85.4326 171.708,85.7659 170.5,86.5C 168.365,84.631 165.698,83.9644 162.5,84.5C 162.778,82.6536 162.111,81.3202 160.5,80.5C 155.785,87.3624 153.618,86.3624 154,77.5C 153.517,78.448 153.351,79.448 153.5,80.5C 152.5,80.5 151.5,80.5 150.5,80.5C 150.5,79.1667 150.5,77.8333 150.5,76.5C 152.937,74.0165 155.937,72.6832 159.5,72.5C 159.077,74.7812 159.744,76.4479 161.5,77.5 Z"/></g>
<g><path style="opacity:1" fill="#cd682a" d="M 150.5,76.5 C 150.5,77.8333 150.5,79.1667 150.5,80.5C 149.326,81.5137 148.66,82.847 148.5,84.5C 147.833,85.1667 147.167,85.8333 146.5,86.5C 146.752,82.6733 148.085,79.3399 150.5,76.5 Z"/></g>
<g><path style="opacity:1" fill="#fb6005" d="M 170.5,86.5 C 173.983,87.9678 174.316,90.1345 171.5,93C 170.987,94.5756 171.654,95.909 173.5,97C 172.704,98.0921 172.037,99.2588 171.5,100.5C 173.623,102.745 174.623,105.412 174.5,108.5C 173.983,114.269 174.65,120.102 176.5,126C 176.122,127.635 175.456,129.135 174.5,130.5C 172.657,129.061 170.99,129.228 169.5,131C 172.084,134.617 172.084,138.283 169.5,142C 170.24,144.943 171.24,145.109 172.5,142.5C 173.192,143.025 173.692,143.692 174,144.5C 174.282,148.039 174.782,151.539 175.5,155C 173.978,168.613 172.978,182.28 172.5,196C 173.575,198.51 174.575,201.01 175.5,203.5C 182.841,203.666 190.174,203.5 197.5,203C 198.066,202.005 198.733,201.172 199.5,200.5C 199.5,201.833 199.5,203.167 199.5,204.5C 191.16,204.666 182.827,204.5 174.5,204C 173.572,203.612 172.905,202.945 172.5,202C 171.854,185.693 171.188,169.526 170.5,153.5C 170.664,150.813 170.497,148.146 170,145.5C 169.617,144.944 169.117,144.611 168.5,144.5C 167.412,139.898 165.746,135.564 163.5,131.5C 161.44,127.27 159.606,122.936 158,118.5C 155.507,119.946 153.673,119.279 152.5,116.5C 154.045,115.548 155.712,115.215 157.5,115.5C 157.75,112.495 156.417,110.662 153.5,110C 155.962,108.784 158.629,108.118 161.5,108C 159.35,104.219 156.683,103.719 153.5,106.5C 152,106.547 151,105.881 150.5,104.5C 151.098,103.205 151.598,101.872 152,100.5C 152.965,102.26 154.132,102.594 155.5,101.5C 154.975,100.808 154.308,100.308 153.5,100C 156.039,98.195 157.039,95.695 156.5,92.5C 155.07,92.4208 153.736,92.7542 152.5,93.5C 151.167,95.1824 150,96.849 149,98.5C 147.251,93.8984 147.084,89.2317 148.5,84.5C 148.66,82.847 149.326,81.5137 150.5,80.5C 151.5,80.5 152.5,80.5 153.5,80.5C 153.351,79.448 153.517,78.448 154,77.5C 153.618,86.3624 155.785,87.3624 160.5,80.5C 162.111,81.3202 162.778,82.6536 162.5,84.5C 165.698,83.9644 168.365,84.631 170.5,86.5 Z"/></g>
<g><path style="opacity:1" fill="#de611c" d="M 47.5,77.5 C 48.511,83.041 47.1777,87.7077 43.5,91.5C 44.1667,87.8333 44.8333,84.1667 45.5,80.5C 46.1667,79.5 46.8333,78.5 47.5,77.5 Z"/></g>
<g><path style="opacity:1" fill="#d07d4c" d="M 177.5,84.5 C 179.77,87.974 181.103,91.974 181.5,96.5C 180.833,95.5 180.167,94.5 179.5,93.5C 178.637,91.5786 177.971,89.5786 177.5,87.5C 177.5,86.5 177.5,85.5 177.5,84.5 Z"/></g>
<g><path style="opacity:1" fill="#cf703d" d="M 146.5,86.5 C 145.492,88.5439 144.492,90.5439 143.5,92.5C 143.025,89.6874 144.025,87.6874 146.5,86.5 Z"/></g>
<g><path style="opacity:0.49" fill="#f3c3a5" d="M 159.5,65.5 C 160.338,65.8417 160.672,66.5084 160.5,67.5C 160.5,68.1667 160.5,68.8333 160.5,69.5C 155.695,69.8894 152.362,72.2228 150.5,76.5C 148.085,79.3399 146.752,82.6733 146.5,86.5C 144.025,87.6874 143.025,89.6874 143.5,92.5C 142.347,94.636 141.014,96.636 139.5,98.5C 140.038,96.8828 140.371,95.2161 140.5,93.5C 143.146,84.7068 147.479,76.8735 153.5,70C 154.745,69.2086 156.078,68.7086 157.5,68.5C 159.048,68.1788 159.715,67.1788 159.5,65.5 Z"/></g>
<g><path style="opacity:1" fill="#d17040" d="M 75.5,84.5 C 77.9257,87.0125 79.5924,90.0125 80.5,93.5C 80.8333,94.8333 81.1667,96.1667 81.5,97.5C 80.1429,96.4097 79.1429,95.0764 78.5,93.5C 76.5168,90.8838 75.5168,87.8838 75.5,84.5 Z"/></g>
<g><path style="opacity:0.173" fill="#fbd9c1" d="M 53.5,68.5 C 55.1667,68.5 56.8333,68.5 58.5,68.5C 55.9217,68.9805 53.5884,69.9805 51.5,71.5C 49.1667,71.8333 47.8333,73.1667 47.5,75.5C 47.5,76.1667 47.5,76.8333 47.5,77.5C 46.8333,78.5 46.1667,79.5 45.5,80.5C 44.5902,82.0188 43.7568,83.6854 43,85.5C 42.1241,90.911 40.9574,96.2443 39.5,101.5C 39.5,101.833 39.5,102.167 39.5,102.5C 38.8333,103.167 38.1667,103.833 37.5,104.5C 39.3459,93.4336 42.5126,82.7669 47,72.5C 48.9719,70.7682 51.1386,69.4348 53.5,68.5 Z"/></g>
<g><path style="opacity:0.984" fill="#de8b5b" d="M 45.5,80.5 C 44.8333,84.1667 44.1667,87.8333 43.5,91.5C 42.8333,93.8333 42.1667,96.1667 41.5,98.5C 40.8333,99.5 40.1667,100.5 39.5,101.5C 40.9574,96.2443 42.1241,90.911 43,85.5C 43.7568,83.6854 44.5902,82.0188 45.5,80.5 Z"/></g>
<g><path style="opacity:1" fill="#f76208" d="M 148.5,84.5 C 147.084,89.2317 147.251,93.8984 149,98.5C 150,96.849 151.167,95.1824 152.5,93.5C 153.736,92.7542 155.07,92.4208 156.5,92.5C 157.039,95.695 156.039,98.195 153.5,100C 154.308,100.308 154.975,100.808 155.5,101.5C 154.132,102.594 152.965,102.26 152,100.5C 151.598,101.872 151.098,103.205 150.5,104.5C 151,105.881 152,106.547 153.5,106.5C 156.683,103.719 159.35,104.219 161.5,108C 158.629,108.118 155.962,108.784 153.5,110C 156.417,110.662 157.75,112.495 157.5,115.5C 155.712,115.215 154.045,115.548 152.5,116.5C 153.673,119.279 155.507,119.946 158,118.5C 159.606,122.936 161.44,127.27 163.5,131.5C 162.833,131.167 162.167,130.833 161.5,130.5C 160.316,127.139 158.483,124.139 156,121.5C 154.644,120.62 153.144,120.286 151.5,120.5C 150.386,119.115 149.386,117.615 148.5,116C 145.765,114.085 142.765,112.918 139.5,112.5C 139.5,112.167 139.5,111.833 139.5,111.5C 139.322,110.305 138.989,109.138 138.5,108C 139.895,102.65 141.562,97.4835 143.5,92.5C 144.492,90.5439 145.492,88.5439 146.5,86.5C 147.167,85.8333 147.833,85.1667 148.5,84.5 Z"/></g>
<g><path style="opacity:0.047" fill="#feecd7" d="M 82.5,94.5 C 83.9313,95.7804 84.5979,97.4471 84.5,99.5C 83.0687,98.2196 82.4021,96.5529 82.5,94.5 Z"/></g>
<g><path style="opacity:0.624" fill="#e7a17f" d="M 80.5,93.5 C 81.1667,93.8333 81.8333,94.1667 82.5,94.5C 82.4021,96.5529 83.0687,98.2196 84.5,99.5C 84.5,100.833 84.5,102.167 84.5,103.5C 83.1302,101.75 82.1302,99.7496 81.5,97.5C 81.1667,96.1667 80.8333,94.8333 80.5,93.5 Z"/></g>
<g><path style="opacity:0.741" fill="#e3a177" d="M 181.5,96.5 C 182.167,97.1667 182.833,97.8333 183.5,98.5C 183.5,99.8333 183.5,101.167 183.5,102.5C 181.926,100.898 181.259,98.8984 181.5,96.5 Z"/></g>
<g><path style="opacity:1" fill="#db6122" d="M 179.5,93.5 C 180.167,94.5 180.833,95.5 181.5,96.5C 181.259,98.8984 181.926,100.898 183.5,102.5C 184.15,104.435 184.483,106.435 184.5,108.5C 184.5,111.167 184.5,113.833 184.5,116.5C 183.042,112.54 181.708,108.54 180.5,104.5C 179.656,100.901 179.323,97.2343 179.5,93.5 Z"/></g>
<g><path style="opacity:1" fill="#d4541c" d="M 78.5,93.5 C 79.1429,95.0764 80.1429,96.4097 81.5,97.5C 82.1302,99.7496 83.1302,101.75 84.5,103.5C 84.4332,105.401 84.7665,107.234 85.5,109C 85.1639,110.03 84.4972,110.53 83.5,110.5C 82.039,104.783 80.3723,99.1159 78.5,93.5 Z"/></g>
<g><path style="opacity:1" fill="#d96320" d="M 41.5,98.5 C 41.8813,105.007 40.548,111.007 37.5,116.5C 37.5,115.167 37.5,113.833 37.5,112.5C 37.5,111.167 37.5,109.833 37.5,108.5C 39.0739,106.898 39.7406,104.898 39.5,102.5C 39.5,102.167 39.5,101.833 39.5,101.5C 40.1667,100.5 40.8333,99.5 41.5,98.5 Z"/></g>
<g><path style="opacity:1" fill="#f45808" d="M 68.5,74.5 C 70.8333,77.1667 73.1667,79.8333 75.5,82.5C 75.5,83.1667 75.5,83.8333 75.5,84.5C 75.5168,87.8838 76.5168,90.8838 78.5,93.5C 80.3723,99.1159 82.039,104.783 83.5,110.5C 78.5625,111.096 74.8958,113.596 72.5,118C 69.2277,118.437 67.561,120.27 67.5,123.5C 66.8333,123.833 66.1667,124.167 65.5,124.5C 62.5608,126.988 60.0608,129.988 58,133.5C 56.7978,135.677 56.2978,138.011 56.5,140.5C 54.9032,141.737 53.7365,143.404 53,145.5C 52.5017,148.817 52.335,152.15 52.5,155.5C 51.6694,166.659 51.1694,177.993 51,189.5C 49.2429,190.119 48.0762,191.286 47.5,193C 48.756,194.479 49.756,196.145 50.5,198C 50.472,199.07 50.1386,199.903 49.5,200.5C 47.8998,199.356 46.2331,198.189 44.5,197C 46.2037,192.292 47.537,187.459 48.5,182.5C 48.8912,172.171 48.8912,161.837 48.5,151.5C 50.825,145.995 52.1583,140.495 52.5,135C 49.9414,133.677 49.2747,131.843 50.5,129.5C 52.3817,130.093 54.2151,130.76 56,131.5C 56.6514,129.765 56.4847,128.098 55.5,126.5C 56.2888,124.512 57.4555,124.179 59,125.5C 59.4643,124.906 59.631,124.239 59.5,123.5C 61.1667,123.5 62.8333,123.5 64.5,123.5C 64.5,122.167 64.5,120.833 64.5,119.5C 65.5,119.5 66.5,119.5 67.5,119.5C 67.67,118.178 67.3366,117.011 66.5,116C 65.0494,116.263 63.7161,116.096 62.5,115.5C 62.9766,114.069 63.6433,112.736 64.5,111.5C 66.5,112.833 68.5,114.167 70.5,115.5C 71.6721,115.081 72.6721,114.415 73.5,113.5C 71.6841,112.185 70.0175,110.685 68.5,109C 69.1258,108.25 69.6258,107.416 70,106.5C 72.3822,107.554 74.8822,108.221 77.5,108.5C 77.4332,106.599 77.7665,104.766 78.5,103C 75.9908,97.4501 74.4908,91.6168 74,85.5C 71.684,82.0373 69.8507,78.3707 68.5,74.5 Z"/></g>
<g><path style="opacity:0.78" fill="#e59d70" d="M 39.5,102.5 C 39.7406,104.898 39.0739,106.898 37.5,108.5C 37.5,107.167 37.5,105.833 37.5,104.5C 38.1667,103.833 38.8333,103.167 39.5,102.5 Z"/></g>
<g><path style="opacity:1" fill="#c56c49" d="M 84.5,103.5 C 86.5567,105.857 86.89,108.524 85.5,111.5C 84.5832,112.127 83.5832,112.461 82.5,112.5C 82.8333,111.833 83.1667,111.167 83.5,110.5C 84.4972,110.53 85.1639,110.03 85.5,109C 84.7665,107.234 84.4332,105.401 84.5,103.5 Z"/></g>
<g><path style="opacity:0.953" fill="#d08965" d="M 137.5,104.5 C 136.677,106.455 136.51,108.455 137,110.5C 137.671,111.252 138.504,111.586 139.5,111.5C 139.5,111.833 139.5,112.167 139.5,112.5C 138.167,112.5 136.833,112.5 135.5,112.5C 135.337,110.143 135.503,107.81 136,105.5C 136.383,104.944 136.883,104.611 137.5,104.5 Z"/></g>
<g><path style="opacity:1" fill="#d6642e" d="M 143.5,92.5 C 141.562,97.4835 139.895,102.65 138.5,108C 138.989,109.138 139.322,110.305 139.5,111.5C 138.504,111.586 137.671,111.252 137,110.5C 136.51,108.455 136.677,106.455 137.5,104.5C 137.704,102.315 138.37,100.315 139.5,98.5C 141.014,96.636 142.347,94.636 143.5,92.5 Z"/></g>
<g><path style="opacity:1" fill="#fc5902" d="M 202.5,188.5 C 203.124,190.834 203.957,193.167 205,195.5C 205.497,198.146 205.664,200.813 205.5,203.5C 202.923,203.545 200.923,202.545 199.5,200.5C 198.733,201.172 198.066,202.005 197.5,203C 190.174,203.5 182.841,203.666 175.5,203.5C 174.575,201.01 173.575,198.51 172.5,196C 172.978,182.28 173.978,168.613 175.5,155C 174.782,151.539 174.282,148.039 174,144.5C 173.692,143.692 173.192,143.025 172.5,142.5C 171.24,145.109 170.24,144.943 169.5,142C 172.084,138.283 172.084,134.617 169.5,131C 170.99,129.228 172.657,129.061 174.5,130.5C 175.456,129.135 176.122,127.635 176.5,126C 174.65,120.102 173.983,114.269 174.5,108.5C 175.833,109.933 177.333,111.267 179,112.5C 179.432,104.919 180.265,104.752 181.5,112C 181.07,113.434 180.236,114.601 179,115.5C 178.506,117.134 178.34,118.801 178.5,120.5C 179.833,120.5 181.167,120.5 182.5,120.5C 182.351,119.448 182.517,118.448 183,117.5C 184.774,124.517 186.607,131.517 188.5,138.5C 186.664,142.934 185.997,147.434 186.5,152C 187.169,153.847 188.503,155.014 190.5,155.5C 190.833,154.833 191.167,154.167 191.5,153.5C 192.386,154.325 192.719,155.325 192.5,156.5C 190.436,156.687 188.436,157.187 186.5,158C 188.848,158.11 190.348,159.277 191,161.5C 191.333,161.167 191.667,160.833 192,160.5C 192.365,162.756 192.532,165.089 192.5,167.5C 193.689,168.429 195.022,168.762 196.5,168.5C 196.565,171.471 195.731,174.138 194,176.5C 192.336,174.195 190.836,174.528 189.5,177.5C 190.315,179.276 191.482,179.943 193,179.5C 193.333,182.5 193.667,185.5 194,188.5C 194.879,186.021 196.379,184.021 198.5,182.5C 199.318,184.108 199.985,185.775 200.5,187.5C 200.957,188.298 201.624,188.631 202.5,188.5 Z"/></g>
<g><path style="opacity:1" fill="#d27b45" d="M 139.5,112.5 C 142.765,112.918 145.765,114.085 148.5,116C 149.386,117.615 150.386,119.115 151.5,120.5C 147.202,118.188 143.202,115.521 139.5,112.5 Z"/></g>
<g><path style="opacity:1" fill="#d36429" d="M 83.5,110.5 C 83.1667,111.167 82.8333,111.833 82.5,112.5C 77.3112,115.339 72.6445,119.005 68.5,123.5C 68.1667,123.5 67.8333,123.5 67.5,123.5C 67.561,120.27 69.2277,118.437 72.5,118C 74.8958,113.596 78.5625,111.096 83.5,110.5 Z"/></g>
<g><path style="opacity:0.969" fill="#d77d4a" d="M 37.5,112.5 C 37.5,113.833 37.5,115.167 37.5,116.5C 36.6618,116.842 36.3284,117.508 36.5,118.5C 35.9992,122.134 34.6658,125.468 32.5,128.5C 32.9498,122.676 34.6165,117.342 37.5,112.5 Z"/></g>
<g><path style="opacity:0.051" fill="#f8d1b4" d="M 140.5,93.5 C 140.371,95.2161 140.038,96.8828 139.5,98.5C 138.37,100.315 137.704,102.315 137.5,104.5C 136.883,104.611 136.383,104.944 136,105.5C 135.503,107.81 135.337,110.143 135.5,112.5C 136.833,112.5 138.167,112.5 139.5,112.5C 143.202,115.521 147.202,118.188 151.5,120.5C 155.167,123.5 158.5,126.833 161.5,130.5C 162.784,136.391 165.117,141.724 168.5,146.5C 168.5,165.5 168.5,184.5 168.5,203.5C 167.833,189.167 167.167,174.833 166.5,160.5C 166.974,143.736 160.641,130.236 147.5,120C 143.081,117.373 138.581,114.873 134,112.5C 133.416,109.743 133.75,107.077 135,104.5C 136.879,100.741 138.713,97.0748 140.5,93.5 Z"/></g>
<g><path style="opacity:0.416" fill="#f6cfb3" d="M 84.5,99.5 C 86.6313,102.7 88.2979,106.2 89.5,110C 85.7646,113.714 81.4312,116.714 76.5,119C 72.6662,122.002 68.9995,125.169 65.5,128.5C 66.075,126.589 67.075,124.922 68.5,123.5C 72.6445,119.005 77.3112,115.339 82.5,112.5C 83.5832,112.461 84.5832,112.127 85.5,111.5C 86.89,108.524 86.5567,105.857 84.5,103.5C 84.5,102.167 84.5,100.833 84.5,99.5 Z"/></g>
<g><path style="opacity:1" fill="#d06b2b" d="M 151.5,120.5 C 153.144,120.286 154.644,120.62 156,121.5C 158.483,124.139 160.316,127.139 161.5,130.5C 158.5,126.833 155.167,123.5 151.5,120.5 Z"/></g>
<g><path style="opacity:0.796" fill="#686a69" d="M 132.5,123.5 C 133.167,123.5 133.833,123.5 134.5,123.5C 134.833,124.167 135.167,124.833 135.5,125.5C 133.973,125.573 132.973,124.906 132.5,123.5 Z"/></g>
<g><path style="opacity:0.224" fill="#d6d7d7" d="M 134.5,123.5 C 136.153,123.66 137.486,124.326 138.5,125.5C 137.833,125.5 137.167,125.5 136.5,125.5C 136.167,125.5 135.833,125.5 135.5,125.5C 135.167,124.833 134.833,124.167 134.5,123.5 Z"/></g>
<g><path style="opacity:0.016" fill="#efefef" d="M 138.5,125.5 C 140.027,125.427 141.027,126.094 141.5,127.5C 140.833,127.5 140.167,127.5 139.5,127.5C 139.167,126.833 138.833,126.167 138.5,125.5 Z"/></g>
<g><path style="opacity:0.612" fill="#858585" d="M 136.5,125.5 C 137.167,125.5 137.833,125.5 138.5,125.5C 138.833,126.167 139.167,126.833 139.5,127.5C 137.973,127.573 136.973,126.906 136.5,125.5 Z"/></g>
<g><path style="opacity:1" fill="#d0642a" d="M 65.5,124.5 C 63.7328,126.938 62.3994,129.605 61.5,132.5C 59.0246,133.687 58.0246,135.687 58.5,138.5C 57.6618,138.842 57.3284,139.508 57.5,140.5C 57.1667,140.5 56.8333,140.5 56.5,140.5C 56.2978,138.011 56.7978,135.677 58,133.5C 60.0608,129.988 62.5608,126.988 65.5,124.5 Z"/></g>
<g><path style="opacity:0.737" fill="#e19d73" d="M 67.5,123.5 C 67.8333,123.5 68.1667,123.5 68.5,123.5C 67.075,124.922 66.075,126.589 65.5,128.5C 64.0937,128.973 63.427,129.973 63.5,131.5C 62.8333,131.833 62.1667,132.167 61.5,132.5C 62.3994,129.605 63.7328,126.938 65.5,124.5C 66.1667,124.167 66.8333,123.833 67.5,123.5 Z"/></g>
<g><path style="opacity:0.012" fill="#fff1e0" d="M 65.5,128.5 C 65.573,130.027 64.9063,131.027 63.5,131.5C 63.427,129.973 64.0937,128.973 65.5,128.5 Z"/></g>
<g><path style="opacity:0.098" fill="#d1d2d1" d="M 95.5,125.5 C 94.6219,123.127 92.9552,122.294 90.5,123C 83.5009,126 77.6676,130.5 73,136.5C 72.3658,139.555 72.5325,142.555 73.5,145.5C 73.5,146.167 73.5,146.833 73.5,147.5C 69.452,142.341 69.7853,137.341 74.5,132.5C 79.612,127.722 85.2787,123.722 91.5,120.5C 94.3507,121.012 95.6841,122.679 95.5,125.5 Z"/></g>
<g><path style="opacity:1" fill="#d26b3b" d="M 184.5,108.5 C 188.558,118.701 191.224,129.367 192.5,140.5C 191.883,140.389 191.383,140.056 191,139.5C 190.09,134.308 188.924,129.308 187.5,124.5C 186.918,121.687 185.918,119.02 184.5,116.5C 184.5,113.833 184.5,111.167 184.5,108.5 Z"/></g>
<g><path style="opacity:0.153" fill="#fad0b8" d="M 183.5,98.5 C 190.434,121.562 196.768,144.895 202.5,168.5C 201.833,167.833 201.167,167.167 200.5,166.5C 200.025,162.916 199.025,159.583 197.5,156.5C 197.41,152.786 196.41,149.452 194.5,146.5C 194.741,144.102 194.074,142.102 192.5,140.5C 191.224,129.367 188.558,118.701 184.5,108.5C 184.483,106.435 184.15,104.435 183.5,102.5C 183.5,101.167 183.5,99.8333 183.5,98.5 Z"/></g>
<g><path style="opacity:1" fill="#fc6004" d="M 47.5,77.5 C 49.6208,77.3253 51.6208,77.6586 53.5,78.5C 53.5,79.1667 53.5,79.8333 53.5,80.5C 50.0134,78.7071 48.5134,79.7071 49,83.5C 50.2547,84.2106 51.4214,85.044 52.5,86C 47.9372,88.4248 46.2706,92.2581 47.5,97.5C 50.1407,98.6261 52.8074,99.9595 55.5,101.5C 53.1667,103.167 51.1667,105.167 49.5,107.5C 53.1282,111.769 56.6282,115.436 60,118.5C 59.9813,120.107 59.8146,121.774 59.5,123.5C 59.631,124.239 59.4643,124.906 59,125.5C 57.4555,124.179 56.2888,124.512 55.5,126.5C 56.4847,128.098 56.6514,129.765 56,131.5C 54.2151,130.76 52.3817,130.093 50.5,129.5C 49.2747,131.843 49.9414,133.677 52.5,135C 52.1583,140.495 50.825,145.995 48.5,151.5C 48.8912,161.837 48.8912,172.171 48.5,182.5C 47.537,187.459 46.2037,192.292 44.5,197C 46.2331,198.189 47.8998,199.356 49.5,200.5C 48.5,200.5 47.5,200.5 46.5,200.5C 46.5,201.5 46.5,202.5 46.5,203.5C 36.5,203.5 26.5,203.5 16.5,203.5C 15.7992,199.181 16.9659,195.514 20,192.5C 20.1307,187.318 21.1307,182.318 23,177.5C 22.8711,180.873 22.5378,184.206 22,187.5C 22.414,187.957 22.914,188.291 23.5,188.5C 27.3711,184.274 28.5377,179.274 27,173.5C 25.9537,172.228 25.4537,170.728 25.5,169C 26.2337,163.429 27.2337,157.929 28.5,152.5C 28.2322,150.901 28.5655,149.568 29.5,148.5C 31.0682,146.189 31.9016,143.522 32,140.5C 33.3848,139.449 34.3848,138.116 35,136.5C 35.9632,130.535 36.4632,124.535 36.5,118.5C 36.3284,117.508 36.6618,116.842 37.5,116.5C 40.548,111.007 41.8813,105.007 41.5,98.5C 42.1667,96.1667 42.8333,93.8333 43.5,91.5C 47.1777,87.7077 48.511,83.041 47.5,77.5 Z"/></g>
<g><path style="opacity:0.294" fill="#c5c6c5" d="M 139.5,127.5 C 140.167,127.5 140.833,127.5 141.5,127.5C 145.918,129.583 148.918,132.916 150.5,137.5C 149.5,136.833 148.5,136.167 147.5,135.5C 147.573,133.973 146.906,132.973 145.5,132.5C 143.46,130.823 141.46,129.156 139.5,127.5 Z"/></g>
<g><path style="opacity:1" fill="#db733b" d="M 161.5,130.5 C 162.167,130.833 162.833,131.167 163.5,131.5C 165.746,135.564 167.412,139.898 168.5,144.5C 168.5,145.167 168.5,145.833 168.5,146.5C 165.117,141.724 162.784,136.391 161.5,130.5 Z"/></g>
<g><path style="opacity:1" fill="#151515" d="M 95.5,125.5 C 96.5686,129.296 97.9019,132.963 99.5,136.5C 99.2594,138.898 99.9261,140.898 101.5,142.5C 103.46,145.627 105.127,148.96 106.5,152.5C 106.259,154.898 106.926,156.898 108.5,158.5C 111.824,161.504 114.158,160.838 115.5,156.5C 117.834,154.824 118.834,152.491 118.5,149.5C 121.889,141.055 125.555,132.722 129.5,124.5C 130.325,123.614 131.325,123.281 132.5,123.5C 132.973,124.906 133.973,125.573 135.5,125.5C 135.833,125.5 136.167,125.5 136.5,125.5C 136.973,126.906 137.973,127.573 139.5,127.5C 141.46,129.156 143.46,130.823 145.5,132.5C 145.427,134.027 146.094,135.027 147.5,135.5C 148.933,137.558 149.6,139.892 149.5,142.5C 148.833,144.5 148.167,146.5 147.5,148.5C 145.755,150.033 144.755,152.033 144.5,154.5C 137.247,169.358 130.747,184.692 125,200.5C 119.877,207.644 113.044,210.144 104.5,208C 101.983,205.651 99.6499,203.151 97.5,200.5C 91.5921,187.007 85.9254,173.34 80.5,159.5C 80.573,157.973 79.9063,156.973 78.5,156.5C 77.5,153.833 76.5,151.167 75.5,148.5C 75.573,146.973 74.9063,145.973 73.5,145.5C 72.5325,142.555 72.3658,139.555 73,136.5C 77.6676,130.5 83.5009,126 90.5,123C 92.9552,122.294 94.6219,123.127 95.5,125.5 Z"/></g>
<g><path style="opacity:0.957" fill="#555756" d="M 145.5,132.5 C 146.906,132.973 147.573,133.973 147.5,135.5C 146.094,135.027 145.427,134.027 145.5,132.5 Z"/></g>
<g><path style="opacity:0.737" fill="#e6a57b" d="M 61.5,132.5 C 60.4918,134.544 59.4918,136.544 58.5,138.5C 58.0246,135.687 59.0246,133.687 61.5,132.5 Z"/></g>
<g><path style="opacity:1" fill="#da7840" d="M 32.5,128.5 C 32.7292,132.917 31.7292,136.917 29.5,140.5C 29.7191,136.2 30.7191,132.2 32.5,128.5 Z"/></g>
<g><path style="opacity:1" fill="#ea5f12" d="M 36.5,118.5 C 36.4632,124.535 35.9632,130.535 35,136.5C 34.3848,138.116 33.3848,139.449 32,140.5C 31.9016,143.522 31.0682,146.189 29.5,148.5C 29.5,145.833 29.5,143.167 29.5,140.5C 31.7292,136.917 32.7292,132.917 32.5,128.5C 34.6658,125.468 35.9992,122.134 36.5,118.5 Z"/></g>
<g><path style="opacity:0.082" fill="#fee5cc" d="M 63.5,131.5 C 61.7365,136.022 59.7365,140.355 57.5,144.5C 57.5,143.167 57.5,141.833 57.5,140.5C 57.3284,139.508 57.6618,138.842 58.5,138.5C 59.4918,136.544 60.4918,134.544 61.5,132.5C 62.1667,132.167 62.8333,131.833 63.5,131.5 Z"/></g>
<g><path style="opacity:0.988" fill="#4f4f4f" d="M 99.5,136.5 C 101.074,138.102 101.741,140.102 101.5,142.5C 99.9261,140.898 99.2594,138.898 99.5,136.5 Z"/></g>
<g><path style="opacity:0.925" fill="#494a4b" d="M 147.5,135.5 C 148.5,136.167 149.5,136.833 150.5,137.5C 150.784,139.415 150.451,141.081 149.5,142.5C 149.6,139.892 148.933,137.558 147.5,135.5 Z"/></g>
<g><path style="opacity:0.133" fill="#d3d3d3" d="M 134.5,123.5 C 133.833,123.5 133.167,123.5 132.5,123.5C 131.325,123.281 130.325,123.614 129.5,124.5C 125.555,132.722 121.889,141.055 118.5,149.5C 116.935,151.509 115.935,153.843 115.5,156.5C 114.158,160.838 111.824,161.504 108.5,158.5C 108.741,156.102 108.074,154.102 106.5,152.5C 105.127,148.96 103.46,145.627 101.5,142.5C 101.741,140.102 101.074,138.102 99.5,136.5C 97.9019,132.963 96.5686,129.296 95.5,125.5C 101.075,136.317 106.408,147.317 111.5,158.5C 113.146,157.221 114.313,155.555 115,153.5C 119.333,143.5 123.667,133.5 128,123.5C 130.293,120.866 132.46,120.866 134.5,123.5 Z"/></g>
<g><path style="opacity:0.112" fill="#d1d2d2" d="M 150.5,137.5 C 151.391,138.261 152.058,139.261 152.5,140.5C 151.426,145.114 149.426,149.114 146.5,152.5C 146.833,151.167 147.167,149.833 147.5,148.5C 148.167,146.5 148.833,144.5 149.5,142.5C 150.451,141.081 150.784,139.415 150.5,137.5 Z"/></g>
<g><path style="opacity:1" fill="#f65805" d="M 180.5,104.5 C 181.708,108.54 183.042,112.54 184.5,116.5C 185.918,119.02 186.918,121.687 187.5,124.5C 188.589,134.044 190.422,143.377 193,152.5C 194.21,155.541 195.71,158.208 197.5,160.5C 197.833,163.167 198.167,165.833 198.5,168.5C 199.572,175.225 200.905,181.892 202.5,188.5C 201.624,188.631 200.957,188.298 200.5,187.5C 199.985,185.775 199.318,184.108 198.5,182.5C 196.379,184.021 194.879,186.021 194,188.5C 193.667,185.5 193.333,182.5 193,179.5C 191.482,179.943 190.315,179.276 189.5,177.5C 190.836,174.528 192.336,174.195 194,176.5C 195.731,174.138 196.565,171.471 196.5,168.5C 195.022,168.762 193.689,168.429 192.5,167.5C 192.532,165.089 192.365,162.756 192,160.5C 191.667,160.833 191.333,161.167 191,161.5C 190.348,159.277 188.848,158.11 186.5,158C 188.436,157.187 190.436,156.687 192.5,156.5C 192.719,155.325 192.386,154.325 191.5,153.5C 191.167,154.167 190.833,154.833 190.5,155.5C 188.503,155.014 187.169,153.847 186.5,152C 185.997,147.434 186.664,142.934 188.5,138.5C 186.607,131.517 184.774,124.517 183,117.5C 182.517,118.448 182.351,119.448 182.5,120.5C 181.167,120.5 179.833,120.5 178.5,120.5C 178.34,118.801 178.506,117.134 179,115.5C 180.236,114.601 181.07,113.434 181.5,112C 180.265,104.752 179.432,104.919 179,112.5C 177.333,111.267 175.833,109.933 174.5,108.5C 174.623,105.412 173.623,102.745 171.5,100.5C 172.037,99.2588 172.704,98.0921 173.5,97C 171.654,95.909 170.987,94.5756 171.5,93C 174.316,90.1345 173.983,87.9678 170.5,86.5C 171.708,85.7659 173.041,85.4326 174.5,85.5C 174.547,88.5682 175.047,91.5682 176,94.5C 177.672,97.8691 179.172,101.202 180.5,104.5 Z"/></g>
<g><path style="opacity:0.796" fill="#666666" d="M 73.5,145.5 C 74.9063,145.973 75.573,146.973 75.5,148.5C 74.8333,148.167 74.1667,147.833 73.5,147.5C 73.5,146.833 73.5,146.167 73.5,145.5 Z"/></g>
<g><path style="opacity:0.424" fill="#fbd8b9" d="M 37.5,104.5 C 37.5,105.833 37.5,107.167 37.5,108.5C 37.5,109.833 37.5,111.167 37.5,112.5C 34.6165,117.342 32.9498,122.676 32.5,128.5C 30.7191,132.2 29.7191,136.2 29.5,140.5C 25.9827,148.738 23.6493,157.405 22.5,166.5C 20.7945,168.612 19.4611,170.945 18.5,173.5C 24.0767,150.183 30.41,127.183 37.5,104.5 Z"/></g>
<g><path style="opacity:0.161" fill="#cccccc" d="M 73.5,147.5 C 74.1667,147.833 74.8333,148.167 75.5,148.5C 76.5,151.167 77.5,153.833 78.5,156.5C 78.5,157.167 78.5,157.833 78.5,158.5C 76.0599,155.28 74.3933,151.613 73.5,147.5 Z"/></g>
<g><path style="opacity:1" fill="#494949" d="M 118.5,149.5 C 118.834,152.491 117.834,154.824 115.5,156.5C 115.935,153.843 116.935,151.509 118.5,149.5 Z"/></g>
<g><path style="opacity:0.304" fill="#f6c5a0" d="M 56.5,140.5 C 56.8333,140.5 57.1667,140.5 57.5,140.5C 57.5,141.833 57.5,143.167 57.5,144.5C 57.5674,145.959 57.2341,147.292 56.5,148.5C 55.8333,151.167 55.1667,153.833 54.5,156.5C 54.2479,151.012 54.9145,145.678 56.5,140.5 Z"/></g>
<g><path style="opacity:0.647" fill="#787878" d="M 147.5,148.5 C 147.167,149.833 146.833,151.167 146.5,152.5C 146.5,152.833 146.5,153.167 146.5,153.5C 145.833,153.833 145.167,154.167 144.5,154.5C 144.755,152.033 145.755,150.033 147.5,148.5 Z"/></g>
<g><path style="opacity:1" fill="#434343" d="M 106.5,152.5 C 108.074,154.102 108.741,156.102 108.5,158.5C 106.926,156.898 106.259,154.898 106.5,152.5 Z"/></g>
<g><path style="opacity:0.91" fill="#cf724e" d="M 194.5,146.5 C 196.41,149.452 197.41,152.786 197.5,156.5C 196.883,156.389 196.383,156.056 196,155.5C 195.304,152.522 194.804,149.522 194.5,146.5 Z"/></g>
<g><path style="opacity:1" fill="#dd591b" d="M 187.5,124.5 C 188.924,129.308 190.09,134.308 191,139.5C 191.383,140.056 191.883,140.389 192.5,140.5C 194.074,142.102 194.741,144.102 194.5,146.5C 194.804,149.522 195.304,152.522 196,155.5C 196.383,156.056 196.883,156.389 197.5,156.5C 197.5,157.833 197.5,159.167 197.5,160.5C 195.71,158.208 194.21,155.541 193,152.5C 190.422,143.377 188.589,134.044 187.5,124.5 Z"/></g>
<g><path style="opacity:0.979" fill="#cf6c37" d="M 56.5,140.5 C 54.9145,145.678 54.2479,151.012 54.5,156.5C 55.1514,172.868 54.4848,188.868 52.5,204.5C 50.8828,205.038 49.2161,205.371 47.5,205.5C 47.5,205.167 47.5,204.833 47.5,204.5C 48.7079,203.766 50.0413,203.433 51.5,203.5C 52.4547,187.535 52.7881,171.535 52.5,155.5C 52.335,152.15 52.5017,148.817 53,145.5C 53.7365,143.404 54.9032,141.737 56.5,140.5 Z"/></g>
<g><path style="opacity:0.882" fill="#595959" d="M 78.5,156.5 C 79.9063,156.973 80.573,157.973 80.5,159.5C 79.8333,159.167 79.1667,158.833 78.5,158.5C 78.5,157.833 78.5,157.167 78.5,156.5 Z"/></g>
<g><path style="opacity:1" fill="#d4783f" d="M 29.5,140.5 C 29.5,143.167 29.5,145.833 29.5,148.5C 28.5655,149.568 28.2322,150.901 28.5,152.5C 25.9581,155.961 24.6248,159.961 24.5,164.5C 23.8333,165.167 23.1667,165.833 22.5,166.5C 23.6493,157.405 25.9827,148.738 29.5,140.5 Z"/></g>
<g><path style="opacity:1" fill="#ce6637" d="M 197.5,156.5 C 199.025,159.583 200.025,162.916 200.5,166.5C 200.517,168.565 200.85,170.565 201.5,172.5C 200.143,171.41 199.143,170.076 198.5,168.5C 198.167,165.833 197.833,163.167 197.5,160.5C 197.5,159.167 197.5,157.833 197.5,156.5 Z"/></g>
<g><path style="opacity:1" fill="#dd6621" d="M 24.5,164.5 C 22.1039,174.095 19.9372,183.762 18,193.5C 17.3292,194.252 16.4959,194.586 15.5,194.5C 15.5,193.167 15.5,191.833 15.5,190.5C 17.2227,188.22 17.8893,185.553 17.5,182.5C 18.9663,181.653 19.7996,180.32 20,178.5C 20.3317,174.305 21.165,170.305 22.5,166.5C 23.1667,165.833 23.8333,165.167 24.5,164.5 Z"/></g>
<g><path style="opacity:0.902" fill="#df8f62" d="M 22.5,166.5 C 21.165,170.305 20.3317,174.305 20,178.5C 19.7996,180.32 18.9663,181.653 17.5,182.5C 17.8333,179.833 18.1667,177.167 18.5,174.5C 18.5,174.167 18.5,173.833 18.5,173.5C 19.4611,170.945 20.7945,168.612 22.5,166.5 Z"/></g>
<g><path style="opacity:0.773" fill="#d88d6c" d="M 200.5,166.5 C 201.167,167.167 201.833,167.833 202.5,168.5C 202.5,169.833 202.5,171.167 202.5,172.5C 202.167,172.5 201.833,172.5 201.5,172.5C 200.85,170.565 200.517,168.565 200.5,166.5 Z"/></g>
<g><path style="opacity:0.337" fill="#fcd6c2" d="M 202.5,168.5 C 204.279,173.278 205.613,178.278 206.5,183.5C 204.863,180.283 203.53,176.95 202.5,173.5C 202.5,173.167 202.5,172.833 202.5,172.5C 202.5,171.167 202.5,169.833 202.5,168.5 Z"/></g>
<g><path style="opacity:1" fill="#f1630c" d="M 28.5,152.5 C 27.2337,157.929 26.2337,163.429 25.5,169C 25.4537,170.728 25.9537,172.228 27,173.5C 28.5377,179.274 27.3711,184.274 23.5,188.5C 22.914,188.291 22.414,187.957 22,187.5C 22.5378,184.206 22.8711,180.873 23,177.5C 21.1307,182.318 20.1307,187.318 20,192.5C 16.9659,195.514 15.7992,199.181 16.5,203.5C 26.5,203.5 36.5,203.5 46.5,203.5C 46.5,202.5 46.5,201.5 46.5,200.5C 47.5,200.5 48.5,200.5 49.5,200.5C 50.1386,199.903 50.472,199.07 50.5,198C 49.756,196.145 48.756,194.479 47.5,193C 48.0762,191.286 49.2429,190.119 51,189.5C 51.1694,177.993 51.6694,166.659 52.5,155.5C 52.7881,171.535 52.4547,187.535 51.5,203.5C 50.0413,203.433 48.7079,203.766 47.5,204.5C 36.8333,204.5 26.1667,204.5 15.5,204.5C 15.5,201.167 15.5,197.833 15.5,194.5C 16.4959,194.586 17.3292,194.252 18,193.5C 19.9372,183.762 22.1039,174.095 24.5,164.5C 24.6248,159.961 25.9581,155.961 28.5,152.5 Z"/></g>
<g><path style="opacity:1" fill="#eb5813" d="M 170.5,153.5 C 171.188,169.526 171.854,185.693 172.5,202C 172.905,202.945 173.572,203.612 174.5,204C 182.827,204.5 191.16,204.666 199.5,204.5C 199.5,203.167 199.5,201.833 199.5,200.5C 200.923,202.545 202.923,203.545 205.5,203.5C 205.664,200.813 205.497,198.146 205,195.5C 203.957,193.167 203.124,190.834 202.5,188.5C 200.905,181.892 199.572,175.225 198.5,168.5C 199.143,170.076 200.143,171.41 201.5,172.5C 201.833,172.5 202.167,172.5 202.5,172.5C 202.5,172.833 202.5,173.167 202.5,173.5C 203.041,181.324 204.374,188.991 206.5,196.5C 206.5,199.167 206.5,201.833 206.5,204.5C 195.534,205.599 184.534,205.765 173.5,205C 172.584,204.626 171.75,204.126 171,203.5C 170.5,186.837 170.333,170.17 170.5,153.5 Z"/></g>
<g><path style="opacity:0.169" fill="#c6c6c6" d="M 146.5,153.5 C 139.972,169.564 133.139,185.564 126,201.5C 120.692,210.359 113.192,212.859 103.5,209C 101.04,207.542 98.8734,205.709 97,203.5C 90.2617,188.696 84.0951,173.696 78.5,158.5C 79.1667,158.833 79.8333,159.167 80.5,159.5C 85.9254,173.34 91.5921,187.007 97.5,200.5C 99.6499,203.151 101.983,205.651 104.5,208C 113.044,210.144 119.877,207.644 125,200.5C 130.747,184.692 137.247,169.358 144.5,154.5C 145.167,154.167 145.833,153.833 146.5,153.5 Z"/></g>
<g><path style="opacity:0.992" fill="#d78c5c" d="M 17.5,182.5 C 17.8893,185.553 17.2227,188.22 15.5,190.5C 15.5651,187.572 16.2318,184.905 17.5,182.5 Z"/></g>
<g><path style="opacity:0.196" fill="#fddcc6" d="M 206.5,183.5 C 208.435,187.895 209.769,192.562 210.5,197.5C 209.687,195.739 208.687,194.072 207.5,192.5C 207.037,189.518 206.704,186.518 206.5,183.5 Z"/></g>
<g><path style="opacity:1" fill="#d1663c" d="M 202.5,173.5 C 203.53,176.95 204.863,180.283 206.5,183.5C 206.704,186.518 207.037,189.518 207.5,192.5C 207.5,193.833 207.5,195.167 207.5,196.5C 207.167,196.5 206.833,196.5 206.5,196.5C 204.374,188.991 203.041,181.324 202.5,173.5 Z"/></g>
<g><path style="opacity:0.086" fill="#fde3c8" d="M 166.5,160.5 C 167.167,174.833 167.833,189.167 168.5,203.5C 169.141,204.482 169.807,205.482 170.5,206.5C 182.815,207.499 195.149,207.832 207.5,207.5C 207.082,208.222 206.416,208.722 205.5,209C 194.833,209.667 184.167,209.667 173.5,209C 171.324,208.837 169.491,208.004 168,206.5C 166.532,191.263 166.032,175.93 166.5,160.5 Z"/></g>
<g><path style="opacity:0.384" fill="#fcdcbe" d="M 18.5,174.5 C 18.1667,177.167 17.8333,179.833 17.5,182.5C 16.2318,184.905 15.5651,187.572 15.5,190.5C 12.6977,194.926 12.031,199.592 13.5,204.5C 13.5,204.833 13.5,205.167 13.5,205.5C 13.8333,206.167 14.1667,206.833 14.5,207.5C 11.8619,206.758 10.5286,204.925 10.5,202C 12.3354,192.474 15.002,183.307 18.5,174.5 Z"/></g>
<g><path style="opacity:0.957" fill="#d99261" d="M 15.5,190.5 C 15.5,191.833 15.5,193.167 15.5,194.5C 13.8255,197.507 13.1588,200.84 13.5,204.5C 12.031,199.592 12.6977,194.926 15.5,190.5 Z"/></g>
<g><path style="opacity:0.851" fill="#cd885e" d="M 207.5,192.5 C 208.687,194.072 209.687,195.739 210.5,197.5C 211.075,201.155 210.075,204.155 207.5,206.5C 208.7,203.031 208.7,199.698 207.5,196.5C 207.5,195.167 207.5,193.833 207.5,192.5 Z"/></g>
<g><path style="opacity:0.392" fill="#fbd6bc" d="M 56.5,148.5 C 55.5238,166.495 55.3571,184.495 56,202.5C 55.7767,204.881 54.61,206.547 52.5,207.5C 52.1667,207.5 51.8333,207.5 51.5,207.5C 51.5569,206.391 51.8902,205.391 52.5,204.5C 54.4848,188.868 55.1514,172.868 54.5,156.5C 55.1667,153.833 55.8333,151.167 56.5,148.5 Z"/></g>
<g><path style="opacity:1" fill="#df681e" d="M 15.5,194.5 C 15.5,197.833 15.5,201.167 15.5,204.5C 26.1667,204.5 36.8333,204.5 47.5,204.5C 47.5,204.833 47.5,205.167 47.5,205.5C 36.2947,206.8 24.9613,206.8 13.5,205.5C 13.5,205.167 13.5,204.833 13.5,204.5C 13.1588,200.84 13.8255,197.507 15.5,194.5 Z"/></g>
<g><path style="opacity:1" fill="#d56730" d="M 168.5,144.5 C 169.117,144.611 169.617,144.944 170,145.5C 170.497,148.146 170.664,150.813 170.5,153.5C 170.333,170.17 170.5,186.837 171,203.5C 171.75,204.126 172.584,204.626 173.5,205C 184.534,205.765 195.534,205.599 206.5,204.5C 206.5,201.833 206.5,199.167 206.5,196.5C 206.833,196.5 207.167,196.5 207.5,196.5C 208.7,199.698 208.7,203.031 207.5,206.5C 207.5,206.833 207.5,207.167 207.5,207.5C 195.149,207.832 182.815,207.499 170.5,206.5C 169.807,205.482 169.141,204.482 168.5,203.5C 168.5,184.5 168.5,165.5 168.5,146.5C 168.5,145.833 168.5,145.167 168.5,144.5 Z"/></g>
<g><path style="opacity:0.035" fill="#faded1" d="M 210.5,197.5 C 211.629,199.628 211.796,201.961 211,204.5C 210.578,206.426 209.411,207.426 207.5,207.5C 207.5,207.167 207.5,206.833 207.5,206.5C 210.075,204.155 211.075,201.155 210.5,197.5 Z"/></g>
<g><path style="opacity:0.886" fill="#d28150" d="M 52.5,204.5 C 51.8902,205.391 51.5569,206.391 51.5,207.5C 39.1667,207.5 26.8333,207.5 14.5,207.5C 14.1667,206.833 13.8333,206.167 13.5,205.5C 24.9613,206.8 36.2947,206.8 47.5,205.5C 49.2161,205.371 50.8828,205.038 52.5,204.5 Z"/></g>
<g><path style="opacity:0.051" fill="#fedec4" d="M 14.5,207.5 C 26.8333,207.5 39.1667,207.5 51.5,207.5C 51.8333,207.5 52.1667,207.5 52.5,207.5C 51.7375,208.268 50.7375,208.768 49.5,209C 38.8333,209.667 28.1667,209.667 17.5,209C 16.2625,208.768 15.2625,208.268 14.5,207.5 Z"/></g>
</svg>
